<svg width="677" height="427" viewBox="0 0 677 427" fill="none" xmlns="http://www.w3.org/2000/svg">
<path d="M89.4 177.47C138.344 177.47 178.02 137.793 178.02 88.85C178.02 39.9065 138.344 0.230011 89.4 0.230011C40.4566 0.230011 0.780029 39.9065 0.780029 88.85C0.780029 137.793 40.4566 177.47 89.4 177.47Z" fill="white"/>
<path d="M352.18 176.45C352.33 176.43 352.47 176.4 352.61 176.37C352.69 176.36 352.77 176.34 352.85 176.33C395.07 169.56 427.33 132.98 427.33 88.85C427.33 39.91 387.65 0.230011 338.71 0.230011C294.58 0.230011 258 32.49 251.23 74.71C251.22 74.78 251.21 74.84 251.19 74.91C251.17 75.07 251.13 75.22 251.11 75.38C234 180.03 180.58 233.46 75.93 250.56C75.77 250.58 75.61 250.62 75.45 250.64C75.38 250.65 75.32 250.66 75.25 250.67C33.03 257.44 0.77002 294.02 0.77002 338.15C0.77002 387.09 40.45 426.77 89.39 426.77C133.52 426.77 170.1 394.51 176.87 352.29C176.88 352.22 176.89 352.16 176.9 352.1C176.93 351.94 176.96 351.78 176.98 351.62C194.1 246.98 247.53 193.56 352.18 176.45Z" fill="white"/>
<path d="M601.5 176.45C601.65 176.43 601.79 176.4 601.93 176.37C602.01 176.36 602.09 176.34 602.17 176.33C644.39 169.56 676.65 132.98 676.65 88.85C676.65 39.91 636.97 0.230011 588.03 0.230011C543.9 0.230011 507.32 32.49 500.55 74.71C500.54 74.78 500.53 74.84 500.51 74.91C500.48 75.07 500.45 75.22 500.43 75.38C483.32 180.03 429.9 233.46 325.25 250.56C325.09 250.58 324.94 250.62 324.78 250.64C324.71 250.65 324.64 250.66 324.58 250.68C282.36 257.45 250.1 294.03 250.1 338.16C250.1 387.1 289.78 426.78 338.72 426.78C382.85 426.78 419.43 394.52 426.2 352.3C426.21 352.22 426.23 352.14 426.24 352.06C426.26 351.92 426.29 351.77 426.32 351.63C443.42 246.98 496.85 193.56 601.5 176.45Z" fill="white"/>
<path d="M588.03 426.79C636.974 426.79 676.65 387.113 676.65 338.17C676.65 289.227 636.974 249.55 588.03 249.55C539.087 249.55 499.41 289.227 499.41 338.17C499.41 387.113 539.087 426.79 588.03 426.79Z" fill="white"/>
</svg>
